<?xml version="1.0" standalone="no"?><!DOCTYPE svg PUBLIC "-//W3C//DTD SVG 1.1//EN" "http://www.w3.org/Graphics/SVG/1.1/DTD/svg11.dtd"><svg class="icon" width="200px" height="200.00px" viewBox="0 0 1024 1024" version="1.1" xmlns="http://www.w3.org/2000/svg"><path fill="#2c2c2c" d="M1024 852c0 71.6-57.3 129.6-128 129.6H128C57.3 981.5 0 923.5 0 852V463.4c0-23.7 6.7-45.7 17.8-64.7 0 0 26.4-84.3 139.9-301.1C192 42.4 224 42.4 259.4 42.4h505.5c35.1 0 67.1 0 104.3 60.6 112.6 215.2 137 295.6 137 295.6 11 19.1 17.8 41.1 17.8 64.7V852zM306.7 107.2c-28.7 0-54.7 0-82.6 45.1-25.3 48.7-65.7 126.5-94.5 181.7H352l44.8-226.6-90.1-0.2z m244.3 0h-90.3l-44.8 226.6h184.9L551 107.2z m57 291.4H416v108c0 29.8 21.5 54 48 54h96c26.5 0 48-24.2 48-54v-108z m194.3-241.9c-30.2-49.6-56.2-49.6-84.8-49.6h-95.3L672 333.8h222.3c-27.8-53.4-66.6-128.2-92-177.1zM960 463.4c0-35.7-28.7-64.7-64-64.7H672v145.7c0 44.7-35.8 81-80 81H432c-44.2 0-80-36.2-80-81V398.6H128c-35.3 0-64 29-64 64.7V852c0 35.7 28.6 64.7 64 64.7h767.9c35.3 0 64-29 64-64.7V463.4zM847.9 852H560c-8.8 0-16-7.2-16-16.2v-32.4c0-8.9 7.1-16.2 16-16.2h288c8.8 0 16 7.2 16 16.2v32.4c0 8.9-7.1 16.2-16.1 16.2z m0-97.1H688c-8.8 0-16-7.2-16-16.2v-32.4c0-8.9 7.1-16.2 16-16.2h160c8.8 0 16 7.2 16 16.2v32.4c0 8.9-7.1 16.2-16.1 16.2z m0 0"  /><path fill="#2c2c2c" d="M338.3 755H177.9c-8.9 0-16.2-7.3-16.2-16.2v-32.9c0-8.9 7.3-16.2 16.2-16.2h160.4c8.9 0 16.2 7.3 16.2 16.2v32.9c-0.1 8.8-7.3 16.2-16.2 16.2z m126.4 97.3H177.9c-8.9 0-16.2-7.3-16.2-16.2v-32.9c0-8.9 7.3-16.2 16.2-16.2h286.9c8.9 0 16.2 7.3 16.2 16.2v32.9c-0.1 8.9-7.3 16.2-16.3 16.2z m0 0"  /></svg>