<?xml version="1.0" standalone="no"?><!DOCTYPE svg PUBLIC "-//W3C//DTD SVG 1.1//EN" "http://www.w3.org/Graphics/SVG/1.1/DTD/svg11.dtd"><svg class="icon" width="200px" height="200.00px" viewBox="0 0 1024 1024" version="1.1" xmlns="http://www.w3.org/2000/svg"><path fill="#2c2c2c" d="M468.0448 151.1296H166.4a17.066667 17.066667 0 0 0-17.066667 17.066667v691.2a17.066667 17.066667 0 0 0 17.066667 17.066666h691.2a17.066667 17.066667 0 0 0 17.066667-17.066666v-302.933334c0-23.560533 6.301867-42.666667 29.866666-42.666666s34.133333 19.106133 34.133334 42.666666v298.666667c0 47.1296-38.203733 85.333333-85.333334 85.333333H170.666667c-47.1296 0-85.333333-38.203733-85.333334-85.333333v-682.666667c0-47.125333 38.203733-85.333333 85.333334-85.333333h298.666666c23.5648 0 42.666667 10.5728 42.666667 34.133333 0 15.458133-13.7728 25.344-41.314133 29.661867a17.066667 17.066667 0 0 1-2.645334 0.2048z m451.857067 90.6112c25.019733 25.0112 25.019733 65.5616 0 90.568533l-376.0256 375.893334a64.081067 64.081067 0 0 1-45.2224 18.756266l-135.6672 0.170667c-35.383467 0.042667-64.1024-28.586667-64.149334-63.957333L298.666667 527.0784a64.029867 64.029867 0 0 1 18.7648-45.367467l375.957333-375.8208c25.019733-25.0112 65.5872-25.0112 90.606933 0l135.906134 135.850667z m-193.335467-78.523733l-353.8688 353.745066a34.133333 34.133333 0 0 0-10.005333 24.1792l0.128 104.8832a17.066667 17.066667 0 0 0 17.083733 17.045334l104.554667-0.098134a34.133333 34.133333 0 0 0 24.098133-9.992533l354.0352-353.860267a17.066667 17.066667 0 0 0 0-24.145066l-111.889067-111.752534a17.066667 17.066667 0 0 0-24.128 0h-0.008533z" /></svg>