<?xml version="1.0" standalone="no"?><!DOCTYPE svg PUBLIC "-//W3C//DTD SVG 1.1//EN" "http://www.w3.org/Graphics/SVG/1.1/DTD/svg11.dtd"><svg class="icon" width="200px" height="200.00px" viewBox="0 0 1024 1024" version="1.1" xmlns="http://www.w3.org/2000/svg"><path fill="#2c2c2c" d="M414.549303 710.965602h151.369201v70.988182h-151.369201zM946.870348 781.773152h-49.493033v-70.988181h44.977245V187.856765H377.519845v79.658493c0 36.668195-29.804198 66.472394-66.472394 66.472394h-89.231963c-6.322103 0-19.146939 5.96084-23.120833 11.018522l-103.501852 126.08079c-5.599577 6.863997-11.560416 23.482096-11.560416 32.33304v207.545598h20.953254v70.988182H76.226495C41.183983 781.773152 12.644205 751.968954 12.644205 715.48139V503.239372c0-25.288411 11.560416-57.802081 27.636621-77.310284L143.782678 299.848298c17.521256-21.314518 50.39619-36.848827 78.03281-36.848827h84.716175v-79.658494c0-36.668195 29.804198-66.472394 66.472394-66.472393h574.046922c36.668195 0 66.472394 29.804198 66.472394 66.472393v532.140413c-0.180632 36.487564-29.98483 66.291762-66.653025 66.291762zM733.183277 904.241312c-74.42018 0-134.931734-60.511554-134.931734-134.931734s60.511554-134.931734 134.931734-134.931734 134.931734 60.511554 134.931734 134.931734-60.511554 134.931734-134.931734 134.931734z m0-198.694655c-35.223143 0-63.943553 28.720409-63.943552 63.943553s28.720409 63.943553 63.943552 63.943553 63.943553-28.720409 63.943553-63.943553-28.720409-63.943553-63.943553-63.943553zM247.28453 904.241312c-74.42018 0-134.931734-60.511554-134.931734-134.931734s60.511554-134.931734 134.931734-134.931734 134.931734 60.511554 134.931734 134.931734-60.511554 134.931734-134.931734 134.931734z m0-198.694655c-35.223143 0-63.943553 28.720409-63.943553 63.943553s28.720409 63.943553 63.943553 63.943553 63.943553-28.720409 63.943553-63.943553-28.720409-63.943553-63.943553-63.943553zM328.207444 550.564826H164.916564c-14.992415 0-27.094726-7.22526-32.694303-19.327571-5.599577-12.102311-3.251367-26.010937 6.502735-37.390721l80.742282-95.373435c10.657259-12.644205 29.804198-21.495149 46.241665-21.495149h66.833657c11.379785 0 22.398307 4.696419 30.346093 12.824837s12.282942 19.327571 11.741048 30.887987l-3.070736 88.148175c-0.903158 23.120833-20.230729 41.725878-43.351561 41.725877z m-11.199153-43.712824z m-108.740166-10.83789h109.101429L319.717763 431.709296h-54.00882c-0.903158 0.180632-3.973893 1.445052-4.87705 2.528841l-52.563768 61.775975z" /></svg>